<mxfile host="app.diagrams.net" agent="Mozilla/5.0 (Windows NT 10.0; Win64; x64) AppleWebKit/537.36 (KHTML, like Gecko) Chrome/136.0.0.0 Safari/537.36" version="27.0.6">
  <diagram name="페이지-1" id="ZVUE2xDK7TtG0_i-z3Hx">
    <mxGraphModel dx="827" dy="523" grid="1" gridSize="10" guides="1" tooltips="1" connect="1" arrows="1" fold="1" page="1" pageScale="1" pageWidth="1600" pageHeight="1200" math="0" shadow="0">
      <root>
        <mxCell id="0" />
        <mxCell id="1" parent="0" />
        <mxCell id="Ck8ut4qxJlzwdNLT_buU-1" value=":AddMemberUI" style="html=1;whiteSpace=wrap;fontSize=13;" parent="1" vertex="1">
          <mxGeometry x="170" y="130" width="110" height="46" as="geometry" />
        </mxCell>
        <mxCell id="Ck8ut4qxJlzwdNLT_buU-3" value="회원가입" style="shape=umlFrame;whiteSpace=wrap;html=1;pointerEvents=0;" parent="1" vertex="1">
          <mxGeometry x="20" y="70" width="740" height="230" as="geometry" />
        </mxCell>
        <mxCell id="Ck8ut4qxJlzwdNLT_buU-4" value="member" style="shape=umlActor;verticalLabelPosition=bottom;verticalAlign=top;html=1;" parent="1" vertex="1">
          <mxGeometry x="50" y="120" width="30" height="56" as="geometry" />
        </mxCell>
        <mxCell id="Ck8ut4qxJlzwdNLT_buU-5" value=":AddMember" style="html=1;whiteSpace=wrap;fontSize=13;" parent="1" vertex="1">
          <mxGeometry x="390" y="130" width="110" height="46" as="geometry" />
        </mxCell>
        <mxCell id="Ck8ut4qxJlzwdNLT_buU-6" value="newMem: Member" style="html=1;whiteSpace=wrap;fontSize=13;" parent="1" vertex="1">
          <mxGeometry x="610" y="130" width="110" height="46" as="geometry" />
        </mxCell>
        <mxCell id="Ck8ut4qxJlzwdNLT_buU-10" value="" style="endArrow=none;html=1;rounded=0;" parent="1" edge="1">
          <mxGeometry width="50" height="50" relative="1" as="geometry">
            <mxPoint x="90" y="152" as="sourcePoint" />
            <mxPoint x="170" y="152" as="targetPoint" />
          </mxGeometry>
        </mxCell>
        <mxCell id="Ck8ut4qxJlzwdNLT_buU-12" value="" style="endArrow=none;html=1;rounded=0;" parent="1" target="Ck8ut4qxJlzwdNLT_buU-5" edge="1">
          <mxGeometry width="50" height="50" relative="1" as="geometry">
            <mxPoint x="280" y="154.5" as="sourcePoint" />
            <mxPoint x="360" y="154.5" as="targetPoint" />
          </mxGeometry>
        </mxCell>
        <mxCell id="Ck8ut4qxJlzwdNLT_buU-13" value="" style="endArrow=none;html=1;rounded=0;" parent="1" edge="1">
          <mxGeometry width="50" height="50" relative="1" as="geometry">
            <mxPoint x="500" y="154.5" as="sourcePoint" />
            <mxPoint x="610" y="155" as="targetPoint" />
          </mxGeometry>
        </mxCell>
        <mxCell id="Ck8ut4qxJlzwdNLT_buU-19" value="" style="endArrow=classic;html=1;rounded=0;" parent="1" edge="1">
          <mxGeometry relative="1" as="geometry">
            <mxPoint x="103" y="140" as="sourcePoint" />
            <mxPoint x="153" y="140" as="targetPoint" />
          </mxGeometry>
        </mxCell>
        <mxCell id="Ck8ut4qxJlzwdNLT_buU-20" value="1: createNewMember()" style="edgeLabel;resizable=0;html=1;;align=center;verticalAlign=middle;fontSize=12;" parent="Ck8ut4qxJlzwdNLT_buU-19" connectable="0" vertex="1">
          <mxGeometry relative="1" as="geometry">
            <mxPoint x="8" y="-30" as="offset" />
          </mxGeometry>
        </mxCell>
        <mxCell id="Ck8ut4qxJlzwdNLT_buU-21" value="" style="endArrow=classic;html=1;rounded=0;" parent="1" edge="1">
          <mxGeometry relative="1" as="geometry">
            <mxPoint x="303" y="139" as="sourcePoint" />
            <mxPoint x="353" y="139" as="targetPoint" />
          </mxGeometry>
        </mxCell>
        <mxCell id="Ck8ut4qxJlzwdNLT_buU-22" value="2.1: join()" style="edgeLabel;resizable=0;html=1;;align=center;verticalAlign=middle;fontSize=12;" parent="Ck8ut4qxJlzwdNLT_buU-21" connectable="0" vertex="1">
          <mxGeometry relative="1" as="geometry">
            <mxPoint x="8" y="-30" as="offset" />
          </mxGeometry>
        </mxCell>
        <mxCell id="Ck8ut4qxJlzwdNLT_buU-23" value="" style="endArrow=classic;html=1;rounded=0;" parent="1" edge="1">
          <mxGeometry relative="1" as="geometry">
            <mxPoint x="528" y="139" as="sourcePoint" />
            <mxPoint x="578" y="139" as="targetPoint" />
          </mxGeometry>
        </mxCell>
        <mxCell id="Ck8ut4qxJlzwdNLT_buU-24" value="2.1.2: Member()" style="edgeLabel;resizable=0;html=1;;align=center;verticalAlign=middle;fontSize=12;" parent="Ck8ut4qxJlzwdNLT_buU-23" connectable="0" vertex="1">
          <mxGeometry relative="1" as="geometry">
            <mxPoint x="8" y="-30" as="offset" />
          </mxGeometry>
        </mxCell>
        <mxCell id="Ck8ut4qxJlzwdNLT_buU-27" value="" style="endArrow=classic;html=1;rounded=0;" parent="1" edge="1">
          <mxGeometry relative="1" as="geometry">
            <mxPoint x="350" y="170" as="sourcePoint" />
            <mxPoint x="300" y="170" as="targetPoint" />
          </mxGeometry>
        </mxCell>
        <mxCell id="Ck8ut4qxJlzwdNLT_buU-28" value="3: printOutput()" style="edgeLabel;resizable=0;html=1;;align=center;verticalAlign=middle;fontSize=12;" parent="Ck8ut4qxJlzwdNLT_buU-27" connectable="0" vertex="1">
          <mxGeometry relative="1" as="geometry">
            <mxPoint x="8" y="30" as="offset" />
          </mxGeometry>
        </mxCell>
        <mxCell id="Ck8ut4qxJlzwdNLT_buU-29" value=":loginUI" style="html=1;whiteSpace=wrap;fontSize=13;" parent="1" vertex="1">
          <mxGeometry x="170" y="400" width="110" height="46" as="geometry" />
        </mxCell>
        <mxCell id="Ck8ut4qxJlzwdNLT_buU-30" value="로그인" style="shape=umlFrame;whiteSpace=wrap;html=1;pointerEvents=0;" parent="1" vertex="1">
          <mxGeometry x="20" y="340" width="740" height="166" as="geometry" />
        </mxCell>
        <mxCell id="Ck8ut4qxJlzwdNLT_buU-31" value="user" style="shape=umlActor;verticalLabelPosition=bottom;verticalAlign=top;html=1;" parent="1" vertex="1">
          <mxGeometry x="50" y="390" width="30" height="56" as="geometry" />
        </mxCell>
        <mxCell id="Ck8ut4qxJlzwdNLT_buU-32" value=":login" style="html=1;whiteSpace=wrap;fontSize=13;" parent="1" vertex="1">
          <mxGeometry x="390" y="400" width="110" height="46" as="geometry" />
        </mxCell>
        <mxCell id="Ck8ut4qxJlzwdNLT_buU-33" value=":User" style="html=1;whiteSpace=wrap;fontSize=13;" parent="1" vertex="1">
          <mxGeometry x="610" y="400" width="110" height="46" as="geometry" />
        </mxCell>
        <mxCell id="Ck8ut4qxJlzwdNLT_buU-34" value="" style="endArrow=none;html=1;rounded=0;" parent="1" edge="1">
          <mxGeometry width="50" height="50" relative="1" as="geometry">
            <mxPoint x="90" y="422" as="sourcePoint" />
            <mxPoint x="170" y="422" as="targetPoint" />
          </mxGeometry>
        </mxCell>
        <mxCell id="Ck8ut4qxJlzwdNLT_buU-35" value="" style="endArrow=none;html=1;rounded=0;" parent="1" target="Ck8ut4qxJlzwdNLT_buU-32" edge="1">
          <mxGeometry width="50" height="50" relative="1" as="geometry">
            <mxPoint x="280" y="424.5" as="sourcePoint" />
            <mxPoint x="360" y="424.5" as="targetPoint" />
          </mxGeometry>
        </mxCell>
        <mxCell id="Ck8ut4qxJlzwdNLT_buU-36" value="" style="endArrow=none;html=1;rounded=0;" parent="1" edge="1">
          <mxGeometry width="50" height="50" relative="1" as="geometry">
            <mxPoint x="500" y="424.5" as="sourcePoint" />
            <mxPoint x="610" y="425" as="targetPoint" />
          </mxGeometry>
        </mxCell>
        <mxCell id="Ck8ut4qxJlzwdNLT_buU-37" value="" style="endArrow=classic;html=1;rounded=0;" parent="1" edge="1">
          <mxGeometry relative="1" as="geometry">
            <mxPoint x="103" y="410" as="sourcePoint" />
            <mxPoint x="153" y="410" as="targetPoint" />
          </mxGeometry>
        </mxCell>
        <mxCell id="Ck8ut4qxJlzwdNLT_buU-38" value="1: requestLogin()" style="edgeLabel;resizable=0;html=1;;align=center;verticalAlign=middle;fontSize=12;" parent="Ck8ut4qxJlzwdNLT_buU-37" connectable="0" vertex="1">
          <mxGeometry relative="1" as="geometry">
            <mxPoint x="8" y="-30" as="offset" />
          </mxGeometry>
        </mxCell>
        <mxCell id="Ck8ut4qxJlzwdNLT_buU-39" value="" style="endArrow=classic;html=1;rounded=0;" parent="1" edge="1">
          <mxGeometry relative="1" as="geometry">
            <mxPoint x="303" y="409" as="sourcePoint" />
            <mxPoint x="353" y="409" as="targetPoint" />
          </mxGeometry>
        </mxCell>
        <mxCell id="Ck8ut4qxJlzwdNLT_buU-40" value="2.1: login()" style="edgeLabel;resizable=0;html=1;;align=center;verticalAlign=middle;fontSize=12;" parent="Ck8ut4qxJlzwdNLT_buU-39" connectable="0" vertex="1">
          <mxGeometry relative="1" as="geometry">
            <mxPoint x="8" y="-30" as="offset" />
          </mxGeometry>
        </mxCell>
        <mxCell id="Ck8ut4qxJlzwdNLT_buU-41" value="" style="endArrow=classic;html=1;rounded=0;" parent="1" edge="1">
          <mxGeometry relative="1" as="geometry">
            <mxPoint x="528" y="409" as="sourcePoint" />
            <mxPoint x="578" y="409" as="targetPoint" />
          </mxGeometry>
        </mxCell>
        <mxCell id="Ck8ut4qxJlzwdNLT_buU-42" value="2.1.1: verifyUser()" style="edgeLabel;resizable=0;html=1;;align=center;verticalAlign=middle;fontSize=12;" parent="Ck8ut4qxJlzwdNLT_buU-41" connectable="0" vertex="1">
          <mxGeometry relative="1" as="geometry">
            <mxPoint x="8" y="-30" as="offset" />
          </mxGeometry>
        </mxCell>
        <mxCell id="Ck8ut4qxJlzwdNLT_buU-43" value="" style="endArrow=classic;html=1;rounded=0;" parent="1" edge="1">
          <mxGeometry relative="1" as="geometry">
            <mxPoint x="350" y="440" as="sourcePoint" />
            <mxPoint x="300" y="440" as="targetPoint" />
          </mxGeometry>
        </mxCell>
        <mxCell id="Ck8ut4qxJlzwdNLT_buU-44" value="3: printOutput()" style="edgeLabel;resizable=0;html=1;;align=center;verticalAlign=middle;fontSize=12;" parent="Ck8ut4qxJlzwdNLT_buU-43" connectable="0" vertex="1">
          <mxGeometry relative="1" as="geometry">
            <mxPoint x="8" y="30" as="offset" />
          </mxGeometry>
        </mxCell>
        <mxCell id="Ck8ut4qxJlzwdNLT_buU-45" value=":logoutUI" style="html=1;whiteSpace=wrap;fontSize=13;" parent="1" vertex="1">
          <mxGeometry x="950" y="400" width="110" height="46" as="geometry" />
        </mxCell>
        <mxCell id="Ck8ut4qxJlzwdNLT_buU-46" value="로그아웃" style="shape=umlFrame;whiteSpace=wrap;html=1;pointerEvents=0;" parent="1" vertex="1">
          <mxGeometry x="800" y="340" width="510" height="166" as="geometry" />
        </mxCell>
        <mxCell id="Ck8ut4qxJlzwdNLT_buU-47" value="user" style="shape=umlActor;verticalLabelPosition=bottom;verticalAlign=top;html=1;" parent="1" vertex="1">
          <mxGeometry x="830" y="390" width="30" height="56" as="geometry" />
        </mxCell>
        <mxCell id="Ck8ut4qxJlzwdNLT_buU-48" value=":logout" style="html=1;whiteSpace=wrap;fontSize=13;" parent="1" vertex="1">
          <mxGeometry x="1170" y="400" width="110" height="46" as="geometry" />
        </mxCell>
        <mxCell id="Ck8ut4qxJlzwdNLT_buU-50" value="" style="endArrow=none;html=1;rounded=0;" parent="1" edge="1">
          <mxGeometry width="50" height="50" relative="1" as="geometry">
            <mxPoint x="870" y="422" as="sourcePoint" />
            <mxPoint x="950" y="422" as="targetPoint" />
          </mxGeometry>
        </mxCell>
        <mxCell id="Ck8ut4qxJlzwdNLT_buU-51" value="" style="endArrow=none;html=1;rounded=0;" parent="1" target="Ck8ut4qxJlzwdNLT_buU-48" edge="1">
          <mxGeometry width="50" height="50" relative="1" as="geometry">
            <mxPoint x="1060" y="424.5" as="sourcePoint" />
            <mxPoint x="1140" y="424.5" as="targetPoint" />
          </mxGeometry>
        </mxCell>
        <mxCell id="Ck8ut4qxJlzwdNLT_buU-53" value="" style="endArrow=classic;html=1;rounded=0;" parent="1" edge="1">
          <mxGeometry relative="1" as="geometry">
            <mxPoint x="883" y="410" as="sourcePoint" />
            <mxPoint x="933" y="410" as="targetPoint" />
          </mxGeometry>
        </mxCell>
        <mxCell id="Ck8ut4qxJlzwdNLT_buU-54" value="1: requestLogout()" style="edgeLabel;resizable=0;html=1;;align=center;verticalAlign=middle;fontSize=12;" parent="Ck8ut4qxJlzwdNLT_buU-53" connectable="0" vertex="1">
          <mxGeometry relative="1" as="geometry">
            <mxPoint x="8" y="-30" as="offset" />
          </mxGeometry>
        </mxCell>
        <mxCell id="Ck8ut4qxJlzwdNLT_buU-55" value="" style="endArrow=classic;html=1;rounded=0;" parent="1" edge="1">
          <mxGeometry relative="1" as="geometry">
            <mxPoint x="1083" y="409" as="sourcePoint" />
            <mxPoint x="1133" y="409" as="targetPoint" />
          </mxGeometry>
        </mxCell>
        <mxCell id="Ck8ut4qxJlzwdNLT_buU-56" value="1.1: logout()" style="edgeLabel;resizable=0;html=1;;align=center;verticalAlign=middle;fontSize=12;" parent="Ck8ut4qxJlzwdNLT_buU-55" connectable="0" vertex="1">
          <mxGeometry relative="1" as="geometry">
            <mxPoint x="8" y="-30" as="offset" />
          </mxGeometry>
        </mxCell>
        <mxCell id="Ck8ut4qxJlzwdNLT_buU-63" value=":AddBikeUI" style="html=1;whiteSpace=wrap;fontSize=13;" parent="1" vertex="1">
          <mxGeometry x="170" y="606" width="110" height="46" as="geometry" />
        </mxCell>
        <mxCell id="Ck8ut4qxJlzwdNLT_buU-64" value="자전거 등록" style="shape=umlFrame;whiteSpace=wrap;html=1;pointerEvents=0;width=70;height=30;" parent="1" vertex="1">
          <mxGeometry x="20" y="546" width="740" height="214" as="geometry" />
        </mxCell>
        <mxCell id="Ck8ut4qxJlzwdNLT_buU-65" value="admin" style="shape=umlActor;verticalLabelPosition=bottom;verticalAlign=top;html=1;" parent="1" vertex="1">
          <mxGeometry x="50" y="596" width="30" height="56" as="geometry" />
        </mxCell>
        <mxCell id="Ck8ut4qxJlzwdNLT_buU-66" value=":AddBike" style="html=1;whiteSpace=wrap;fontSize=13;" parent="1" vertex="1">
          <mxGeometry x="390" y="606" width="110" height="46" as="geometry" />
        </mxCell>
        <mxCell id="Ck8ut4qxJlzwdNLT_buU-67" value="NewBike:Bike" style="html=1;whiteSpace=wrap;fontSize=13;" parent="1" vertex="1">
          <mxGeometry x="610" y="606" width="110" height="46" as="geometry" />
        </mxCell>
        <mxCell id="Ck8ut4qxJlzwdNLT_buU-68" value="" style="endArrow=none;html=1;rounded=0;" parent="1" edge="1">
          <mxGeometry width="50" height="50" relative="1" as="geometry">
            <mxPoint x="90" y="628" as="sourcePoint" />
            <mxPoint x="170" y="628" as="targetPoint" />
          </mxGeometry>
        </mxCell>
        <mxCell id="Ck8ut4qxJlzwdNLT_buU-69" value="" style="endArrow=none;html=1;rounded=0;" parent="1" target="Ck8ut4qxJlzwdNLT_buU-66" edge="1">
          <mxGeometry width="50" height="50" relative="1" as="geometry">
            <mxPoint x="280" y="630.5" as="sourcePoint" />
            <mxPoint x="360" y="630.5" as="targetPoint" />
          </mxGeometry>
        </mxCell>
        <mxCell id="Ck8ut4qxJlzwdNLT_buU-70" value="" style="endArrow=none;html=1;rounded=0;" parent="1" edge="1">
          <mxGeometry width="50" height="50" relative="1" as="geometry">
            <mxPoint x="500" y="630.5" as="sourcePoint" />
            <mxPoint x="610" y="631" as="targetPoint" />
          </mxGeometry>
        </mxCell>
        <mxCell id="Ck8ut4qxJlzwdNLT_buU-71" value="" style="endArrow=classic;html=1;rounded=0;" parent="1" edge="1">
          <mxGeometry relative="1" as="geometry">
            <mxPoint x="103" y="616" as="sourcePoint" />
            <mxPoint x="153" y="616" as="targetPoint" />
          </mxGeometry>
        </mxCell>
        <mxCell id="Ck8ut4qxJlzwdNLT_buU-72" value="1: createNewBike()" style="edgeLabel;resizable=0;html=1;;align=center;verticalAlign=middle;fontSize=12;" parent="Ck8ut4qxJlzwdNLT_buU-71" connectable="0" vertex="1">
          <mxGeometry relative="1" as="geometry">
            <mxPoint x="8" y="-30" as="offset" />
          </mxGeometry>
        </mxCell>
        <mxCell id="Ck8ut4qxJlzwdNLT_buU-73" value="" style="endArrow=classic;html=1;rounded=0;" parent="1" edge="1">
          <mxGeometry relative="1" as="geometry">
            <mxPoint x="303" y="615" as="sourcePoint" />
            <mxPoint x="353" y="615" as="targetPoint" />
          </mxGeometry>
        </mxCell>
        <mxCell id="Ck8ut4qxJlzwdNLT_buU-74" value="2.1: addNewBike()" style="edgeLabel;resizable=0;html=1;;align=center;verticalAlign=middle;fontSize=12;" parent="Ck8ut4qxJlzwdNLT_buU-73" connectable="0" vertex="1">
          <mxGeometry relative="1" as="geometry">
            <mxPoint x="8" y="-30" as="offset" />
          </mxGeometry>
        </mxCell>
        <mxCell id="Ck8ut4qxJlzwdNLT_buU-75" value="" style="endArrow=classic;html=1;rounded=0;" parent="1" edge="1">
          <mxGeometry relative="1" as="geometry">
            <mxPoint x="528" y="615" as="sourcePoint" />
            <mxPoint x="578" y="615" as="targetPoint" />
          </mxGeometry>
        </mxCell>
        <mxCell id="Ck8ut4qxJlzwdNLT_buU-76" value="2.1.2: Bike()" style="edgeLabel;resizable=0;html=1;;align=center;verticalAlign=middle;fontSize=12;" parent="Ck8ut4qxJlzwdNLT_buU-75" connectable="0" vertex="1">
          <mxGeometry relative="1" as="geometry">
            <mxPoint x="8" y="-30" as="offset" />
          </mxGeometry>
        </mxCell>
        <mxCell id="Ck8ut4qxJlzwdNLT_buU-77" value="" style="endArrow=classic;html=1;rounded=0;" parent="1" edge="1">
          <mxGeometry relative="1" as="geometry">
            <mxPoint x="350" y="646" as="sourcePoint" />
            <mxPoint x="300" y="646" as="targetPoint" />
          </mxGeometry>
        </mxCell>
        <mxCell id="Ck8ut4qxJlzwdNLT_buU-78" value="3: printOutput()" style="edgeLabel;resizable=0;html=1;;align=center;verticalAlign=middle;fontSize=12;" parent="Ck8ut4qxJlzwdNLT_buU-77" connectable="0" vertex="1">
          <mxGeometry relative="1" as="geometry">
            <mxPoint x="8" y="30" as="offset" />
          </mxGeometry>
        </mxCell>
        <mxCell id="Ck8ut4qxJlzwdNLT_buU-79" value=":RentBikeUI" style="html=1;whiteSpace=wrap;fontSize=13;" parent="1" vertex="1">
          <mxGeometry x="950" y="630" width="110" height="46" as="geometry" />
        </mxCell>
        <mxCell id="Ck8ut4qxJlzwdNLT_buU-80" value="자전거 대여" style="shape=umlFrame;whiteSpace=wrap;html=1;pointerEvents=0;width=70;height=30;" parent="1" vertex="1">
          <mxGeometry x="800" y="570" width="710" height="166" as="geometry" />
        </mxCell>
        <mxCell id="Ck8ut4qxJlzwdNLT_buU-81" value="member" style="shape=umlActor;verticalLabelPosition=bottom;verticalAlign=top;html=1;" parent="1" vertex="1">
          <mxGeometry x="830" y="620" width="30" height="56" as="geometry" />
        </mxCell>
        <mxCell id="Ck8ut4qxJlzwdNLT_buU-82" value=":RentBike" style="html=1;whiteSpace=wrap;fontSize=13;" parent="1" vertex="1">
          <mxGeometry x="1170" y="630" width="110" height="46" as="geometry" />
        </mxCell>
        <mxCell id="Ck8ut4qxJlzwdNLT_buU-84" value="" style="endArrow=none;html=1;rounded=0;" parent="1" edge="1">
          <mxGeometry width="50" height="50" relative="1" as="geometry">
            <mxPoint x="870" y="652" as="sourcePoint" />
            <mxPoint x="950" y="652" as="targetPoint" />
          </mxGeometry>
        </mxCell>
        <mxCell id="Ck8ut4qxJlzwdNLT_buU-85" value="" style="endArrow=none;html=1;rounded=0;" parent="1" target="Ck8ut4qxJlzwdNLT_buU-82" edge="1">
          <mxGeometry width="50" height="50" relative="1" as="geometry">
            <mxPoint x="1060" y="654.5" as="sourcePoint" />
            <mxPoint x="1140" y="654.5" as="targetPoint" />
          </mxGeometry>
        </mxCell>
        <mxCell id="Ck8ut4qxJlzwdNLT_buU-87" value="" style="endArrow=classic;html=1;rounded=0;" parent="1" edge="1">
          <mxGeometry relative="1" as="geometry">
            <mxPoint x="883" y="640" as="sourcePoint" />
            <mxPoint x="933" y="640" as="targetPoint" />
          </mxGeometry>
        </mxCell>
        <mxCell id="Ck8ut4qxJlzwdNLT_buU-88" value="1: enterBike()" style="edgeLabel;resizable=0;html=1;;align=center;verticalAlign=middle;fontSize=12;" parent="Ck8ut4qxJlzwdNLT_buU-87" connectable="0" vertex="1">
          <mxGeometry relative="1" as="geometry">
            <mxPoint x="8" y="-30" as="offset" />
          </mxGeometry>
        </mxCell>
        <mxCell id="Ck8ut4qxJlzwdNLT_buU-89" value="" style="endArrow=classic;html=1;rounded=0;" parent="1" edge="1">
          <mxGeometry relative="1" as="geometry">
            <mxPoint x="1083" y="639" as="sourcePoint" />
            <mxPoint x="1133" y="639" as="targetPoint" />
          </mxGeometry>
        </mxCell>
        <mxCell id="Ck8ut4qxJlzwdNLT_buU-90" value="2.1: rentBike()" style="edgeLabel;resizable=0;html=1;;align=center;verticalAlign=middle;fontSize=12;" parent="Ck8ut4qxJlzwdNLT_buU-89" connectable="0" vertex="1">
          <mxGeometry relative="1" as="geometry">
            <mxPoint x="8" y="-30" as="offset" />
          </mxGeometry>
        </mxCell>
        <mxCell id="Ck8ut4qxJlzwdNLT_buU-93" value="" style="endArrow=classic;html=1;rounded=0;" parent="1" edge="1">
          <mxGeometry relative="1" as="geometry">
            <mxPoint x="1130" y="670" as="sourcePoint" />
            <mxPoint x="1080" y="670" as="targetPoint" />
          </mxGeometry>
        </mxCell>
        <mxCell id="Ck8ut4qxJlzwdNLT_buU-94" value="3: printOutput()" style="edgeLabel;resizable=0;html=1;;align=center;verticalAlign=middle;fontSize=12;" parent="Ck8ut4qxJlzwdNLT_buU-93" connectable="0" vertex="1">
          <mxGeometry relative="1" as="geometry">
            <mxPoint x="8" y="30" as="offset" />
          </mxGeometry>
        </mxCell>
        <mxCell id="Ck8ut4qxJlzwdNLT_buU-95" value=":GetRentalBikesUI" style="html=1;whiteSpace=wrap;fontSize=13;" parent="1" vertex="1">
          <mxGeometry x="163" y="860" width="130" height="46" as="geometry" />
        </mxCell>
        <mxCell id="Ck8ut4qxJlzwdNLT_buU-96" value="자전거 대여 정보 조회" style="shape=umlFrame;whiteSpace=wrap;html=1;pointerEvents=0;width=120;height=30;" parent="1" vertex="1">
          <mxGeometry x="20" y="800" width="740" height="166" as="geometry" />
        </mxCell>
        <mxCell id="Ck8ut4qxJlzwdNLT_buU-97" value="member" style="shape=umlActor;verticalLabelPosition=bottom;verticalAlign=top;html=1;" parent="1" vertex="1">
          <mxGeometry x="50" y="850" width="30" height="56" as="geometry" />
        </mxCell>
        <mxCell id="Ck8ut4qxJlzwdNLT_buU-98" value=":GetRentalBikes" style="html=1;whiteSpace=wrap;fontSize=13;" parent="1" vertex="1">
          <mxGeometry x="390" y="860" width="110" height="46" as="geometry" />
        </mxCell>
        <mxCell id="Ck8ut4qxJlzwdNLT_buU-99" value=":Bike" style="html=1;whiteSpace=wrap;fontSize=13;" parent="1" vertex="1">
          <mxGeometry x="610" y="860" width="110" height="46" as="geometry" />
        </mxCell>
        <mxCell id="Ck8ut4qxJlzwdNLT_buU-100" value="" style="endArrow=none;html=1;rounded=0;" parent="1" edge="1">
          <mxGeometry width="50" height="50" relative="1" as="geometry">
            <mxPoint x="90" y="882" as="sourcePoint" />
            <mxPoint x="160" y="882" as="targetPoint" />
          </mxGeometry>
        </mxCell>
        <mxCell id="Ck8ut4qxJlzwdNLT_buU-101" value="" style="endArrow=none;html=1;rounded=0;exitX=1;exitY=0.5;exitDx=0;exitDy=0;" parent="1" source="Ck8ut4qxJlzwdNLT_buU-95" target="Ck8ut4qxJlzwdNLT_buU-98" edge="1">
          <mxGeometry width="50" height="50" relative="1" as="geometry">
            <mxPoint x="300" y="885" as="sourcePoint" />
            <mxPoint x="360" y="884.5" as="targetPoint" />
          </mxGeometry>
        </mxCell>
        <mxCell id="Ck8ut4qxJlzwdNLT_buU-102" value="" style="endArrow=none;html=1;rounded=0;" parent="1" edge="1">
          <mxGeometry width="50" height="50" relative="1" as="geometry">
            <mxPoint x="500" y="884.5" as="sourcePoint" />
            <mxPoint x="610" y="885" as="targetPoint" />
          </mxGeometry>
        </mxCell>
        <mxCell id="Ck8ut4qxJlzwdNLT_buU-103" value="" style="endArrow=classic;html=1;rounded=0;" parent="1" edge="1">
          <mxGeometry relative="1" as="geometry">
            <mxPoint x="103" y="870" as="sourcePoint" />
            <mxPoint x="153" y="870" as="targetPoint" />
          </mxGeometry>
        </mxCell>
        <mxCell id="Ck8ut4qxJlzwdNLT_buU-105" value="" style="endArrow=classic;html=1;rounded=0;" parent="1" edge="1">
          <mxGeometry relative="1" as="geometry">
            <mxPoint x="303" y="869" as="sourcePoint" />
            <mxPoint x="353" y="869" as="targetPoint" />
          </mxGeometry>
        </mxCell>
        <mxCell id="Ck8ut4qxJlzwdNLT_buU-106" value="2: showRentalBikes()" style="edgeLabel;resizable=0;html=1;;align=center;verticalAlign=middle;fontSize=12;" parent="Ck8ut4qxJlzwdNLT_buU-105" connectable="0" vertex="1">
          <mxGeometry relative="1" as="geometry">
            <mxPoint x="12" y="-19" as="offset" />
          </mxGeometry>
        </mxCell>
        <mxCell id="Ck8ut4qxJlzwdNLT_buU-107" value="" style="endArrow=classic;html=1;rounded=0;" parent="1" edge="1">
          <mxGeometry relative="1" as="geometry">
            <mxPoint x="528" y="869" as="sourcePoint" />
            <mxPoint x="578" y="869" as="targetPoint" />
          </mxGeometry>
        </mxCell>
        <mxCell id="Ck8ut4qxJlzwdNLT_buU-108" value="2.1: *[For all rental bikes]:&lt;div&gt;getBikeDetails()&lt;/div&gt;" style="edgeLabel;resizable=0;html=1;;align=center;verticalAlign=middle;fontSize=12;" parent="Ck8ut4qxJlzwdNLT_buU-107" connectable="0" vertex="1">
          <mxGeometry relative="1" as="geometry">
            <mxPoint x="8" y="-30" as="offset" />
          </mxGeometry>
        </mxCell>
        <mxCell id="Ck8ut4qxJlzwdNLT_buU-109" value="" style="endArrow=classic;html=1;rounded=0;" parent="1" edge="1">
          <mxGeometry relative="1" as="geometry">
            <mxPoint x="350" y="900" as="sourcePoint" />
            <mxPoint x="300" y="900" as="targetPoint" />
          </mxGeometry>
        </mxCell>
        <mxCell id="Ck8ut4qxJlzwdNLT_buU-110" value="3: printOutput()" style="edgeLabel;resizable=0;html=1;;align=center;verticalAlign=middle;fontSize=12;" parent="Ck8ut4qxJlzwdNLT_buU-109" connectable="0" vertex="1">
          <mxGeometry relative="1" as="geometry">
            <mxPoint x="8" y="30" as="offset" />
          </mxGeometry>
        </mxCell>
        <mxCell id="hXH128Q0sBT7NkkNWeF5-1" value=":Member" style="html=1;whiteSpace=wrap;fontSize=13;" parent="1" vertex="1">
          <mxGeometry x="500" y="230" width="110" height="46" as="geometry" />
        </mxCell>
        <mxCell id="hXH128Q0sBT7NkkNWeF5-2" value="" style="endArrow=none;html=1;rounded=0;exitX=0.447;exitY=1.017;exitDx=0;exitDy=0;exitPerimeter=0;entryX=0.546;entryY=0.052;entryDx=0;entryDy=0;entryPerimeter=0;" parent="1" source="Ck8ut4qxJlzwdNLT_buU-5" target="hXH128Q0sBT7NkkNWeF5-1" edge="1">
          <mxGeometry width="50" height="50" relative="1" as="geometry">
            <mxPoint x="510" y="164.5" as="sourcePoint" />
            <mxPoint x="620" y="165" as="targetPoint" />
          </mxGeometry>
        </mxCell>
        <mxCell id="hXH128Q0sBT7NkkNWeF5-8" value="" style="endArrow=classic;html=1;rounded=0;exitX=0.815;exitY=1.017;exitDx=0;exitDy=0;exitPerimeter=0;" parent="1" edge="1">
          <mxGeometry relative="1" as="geometry">
            <mxPoint x="500" y="190.00199999999998" as="sourcePoint" />
            <mxPoint x="550.35" y="213.22" as="targetPoint" />
          </mxGeometry>
        </mxCell>
        <mxCell id="hXH128Q0sBT7NkkNWeF5-9" value="2.1.1: isDuplicateMember()" style="edgeLabel;resizable=0;html=1;;align=center;verticalAlign=middle;fontSize=12;" parent="hXH128Q0sBT7NkkNWeF5-8" connectable="0" vertex="1">
          <mxGeometry relative="1" as="geometry">
            <mxPoint x="65" y="-2" as="offset" />
          </mxGeometry>
        </mxCell>
        <mxCell id="hXH128Q0sBT7NkkNWeF5-11" value="Bike" style="html=1;whiteSpace=wrap;fontSize=13;" parent="1" vertex="1">
          <mxGeometry x="500" y="700" width="110" height="46" as="geometry" />
        </mxCell>
        <mxCell id="hXH128Q0sBT7NkkNWeF5-12" value="" style="endArrow=classic;html=1;rounded=0;exitX=0.815;exitY=1.017;exitDx=0;exitDy=0;exitPerimeter=0;" parent="1" edge="1">
          <mxGeometry relative="1" as="geometry">
            <mxPoint x="500.00000000000006" y="660.002" as="sourcePoint" />
            <mxPoint x="550.35" y="683.22" as="targetPoint" />
          </mxGeometry>
        </mxCell>
        <mxCell id="hXH128Q0sBT7NkkNWeF5-13" value="2.1.1: isDuplicateBike()" style="edgeLabel;resizable=0;html=1;;align=center;verticalAlign=middle;fontSize=12;" parent="hXH128Q0sBT7NkkNWeF5-12" connectable="0" vertex="1">
          <mxGeometry relative="1" as="geometry">
            <mxPoint x="65" y="-2" as="offset" />
          </mxGeometry>
        </mxCell>
        <mxCell id="hXH128Q0sBT7NkkNWeF5-14" value="" style="endArrow=none;html=1;rounded=0;exitX=0.447;exitY=1.017;exitDx=0;exitDy=0;exitPerimeter=0;entryX=0.5;entryY=0;entryDx=0;entryDy=0;" parent="1" target="hXH128Q0sBT7NkkNWeF5-11" edge="1">
          <mxGeometry width="50" height="50" relative="1" as="geometry">
            <mxPoint x="440" y="652" as="sourcePoint" />
            <mxPoint x="561" y="707" as="targetPoint" />
          </mxGeometry>
        </mxCell>
        <mxCell id="hXH128Q0sBT7NkkNWeF5-21" value="" style="endArrow=classic;html=1;rounded=0;" parent="1" edge="1">
          <mxGeometry relative="1" as="geometry">
            <mxPoint x="1130" y="445.17" as="sourcePoint" />
            <mxPoint x="1080" y="445.17" as="targetPoint" />
          </mxGeometry>
        </mxCell>
        <mxCell id="hXH128Q0sBT7NkkNWeF5-22" value="3: printOutput()" style="edgeLabel;resizable=0;html=1;;align=center;verticalAlign=middle;fontSize=12;" parent="hXH128Q0sBT7NkkNWeF5-21" connectable="0" vertex="1">
          <mxGeometry relative="1" as="geometry">
            <mxPoint x="8" y="30" as="offset" />
          </mxGeometry>
        </mxCell>
        <mxCell id="hXH128Q0sBT7NkkNWeF5-23" value=":ShutdownUI" style="html=1;whiteSpace=wrap;fontSize=13;" parent="1" vertex="1">
          <mxGeometry x="950" y="860" width="110" height="46" as="geometry" />
        </mxCell>
        <mxCell id="hXH128Q0sBT7NkkNWeF5-24" value="종료" style="shape=umlFrame;whiteSpace=wrap;html=1;pointerEvents=0;width=70;height=30;" parent="1" vertex="1">
          <mxGeometry x="800" y="800" width="510" height="166" as="geometry" />
        </mxCell>
        <mxCell id="hXH128Q0sBT7NkkNWeF5-25" value="user" style="shape=umlActor;verticalLabelPosition=bottom;verticalAlign=top;html=1;" parent="1" vertex="1">
          <mxGeometry x="830" y="850" width="30" height="56" as="geometry" />
        </mxCell>
        <mxCell id="hXH128Q0sBT7NkkNWeF5-26" value=":Shutdown" style="html=1;whiteSpace=wrap;fontSize=13;" parent="1" vertex="1">
          <mxGeometry x="1170" y="860" width="110" height="46" as="geometry" />
        </mxCell>
        <mxCell id="hXH128Q0sBT7NkkNWeF5-27" value="" style="endArrow=none;html=1;rounded=0;" parent="1" edge="1">
          <mxGeometry width="50" height="50" relative="1" as="geometry">
            <mxPoint x="870" y="882" as="sourcePoint" />
            <mxPoint x="950" y="882" as="targetPoint" />
          </mxGeometry>
        </mxCell>
        <mxCell id="hXH128Q0sBT7NkkNWeF5-28" value="" style="endArrow=none;html=1;rounded=0;" parent="1" target="hXH128Q0sBT7NkkNWeF5-26" edge="1">
          <mxGeometry width="50" height="50" relative="1" as="geometry">
            <mxPoint x="1060" y="884.5" as="sourcePoint" />
            <mxPoint x="1140" y="884.5" as="targetPoint" />
          </mxGeometry>
        </mxCell>
        <mxCell id="hXH128Q0sBT7NkkNWeF5-29" value="" style="endArrow=classic;html=1;rounded=0;" parent="1" edge="1">
          <mxGeometry relative="1" as="geometry">
            <mxPoint x="883" y="870" as="sourcePoint" />
            <mxPoint x="933" y="870" as="targetPoint" />
          </mxGeometry>
        </mxCell>
        <mxCell id="hXH128Q0sBT7NkkNWeF5-30" value="1: requestShutdown()" style="edgeLabel;resizable=0;html=1;;align=center;verticalAlign=middle;fontSize=12;" parent="hXH128Q0sBT7NkkNWeF5-29" connectable="0" vertex="1">
          <mxGeometry relative="1" as="geometry">
            <mxPoint x="8" y="-30" as="offset" />
          </mxGeometry>
        </mxCell>
        <mxCell id="hXH128Q0sBT7NkkNWeF5-31" value="" style="endArrow=classic;html=1;rounded=0;" parent="1" edge="1">
          <mxGeometry relative="1" as="geometry">
            <mxPoint x="1083" y="869" as="sourcePoint" />
            <mxPoint x="1133" y="869" as="targetPoint" />
          </mxGeometry>
        </mxCell>
        <mxCell id="hXH128Q0sBT7NkkNWeF5-32" value="2.1: shutdown()" style="edgeLabel;resizable=0;html=1;;align=center;verticalAlign=middle;fontSize=12;" parent="hXH128Q0sBT7NkkNWeF5-31" connectable="0" vertex="1">
          <mxGeometry relative="1" as="geometry">
            <mxPoint x="8" y="-30" as="offset" />
          </mxGeometry>
        </mxCell>
        <mxCell id="hXH128Q0sBT7NkkNWeF5-33" value="" style="endArrow=classic;html=1;rounded=0;" parent="1" edge="1">
          <mxGeometry relative="1" as="geometry">
            <mxPoint x="1130" y="900" as="sourcePoint" />
            <mxPoint x="1080" y="900" as="targetPoint" />
          </mxGeometry>
        </mxCell>
        <mxCell id="hXH128Q0sBT7NkkNWeF5-34" value="3: printOutput()" style="edgeLabel;resizable=0;html=1;;align=center;verticalAlign=middle;fontSize=12;" parent="hXH128Q0sBT7NkkNWeF5-33" connectable="0" vertex="1">
          <mxGeometry relative="1" as="geometry">
            <mxPoint x="8" y="30" as="offset" />
          </mxGeometry>
        </mxCell>
        <mxCell id="hXH128Q0sBT7NkkNWeF5-37" value=":Bike" style="html=1;whiteSpace=wrap;fontSize=13;" parent="1" vertex="1">
          <mxGeometry x="1370" y="630" width="110" height="46" as="geometry" />
        </mxCell>
        <mxCell id="hXH128Q0sBT7NkkNWeF5-38" value="" style="endArrow=none;html=1;rounded=0;" parent="1" edge="1">
          <mxGeometry width="50" height="50" relative="1" as="geometry">
            <mxPoint x="1280" y="652.71" as="sourcePoint" />
            <mxPoint x="1370" y="653.21" as="targetPoint" />
          </mxGeometry>
        </mxCell>
        <mxCell id="hXH128Q0sBT7NkkNWeF5-39" value="" style="endArrow=classic;html=1;rounded=0;" parent="1" edge="1">
          <mxGeometry relative="1" as="geometry">
            <mxPoint x="1300" y="640" as="sourcePoint" />
            <mxPoint x="1350" y="640" as="targetPoint" />
          </mxGeometry>
        </mxCell>
        <mxCell id="hXH128Q0sBT7NkkNWeF5-40" value="2.1.1: getBikes()" style="edgeLabel;resizable=0;html=1;;align=center;verticalAlign=middle;fontSize=12;" parent="hXH128Q0sBT7NkkNWeF5-39" connectable="0" vertex="1">
          <mxGeometry relative="1" as="geometry">
            <mxPoint x="8" y="-30" as="offset" />
          </mxGeometry>
        </mxCell>
        <mxCell id="hXH128Q0sBT7NkkNWeF5-41" value="1: requestBikeList()" style="edgeLabel;resizable=0;html=1;;align=center;verticalAlign=middle;fontSize=12;" parent="1" connectable="0" vertex="1">
          <mxGeometry x="129.9975862068966" y="850" as="geometry" />
        </mxCell>
      </root>
    </mxGraphModel>
  </diagram>
</mxfile>
